<svg xmlns="http://www.w3.org/2000/svg" viewBox="0 0 719.45 476.52"><defs><style>.cls-1{fill:#ff5722;}.cls-2{fill:#2196f3;}.cls-3{fill:#8bc34a;}</style></defs><title>Asset 1</title><g id="Layer_2" data-name="Layer 2"><g id="Layer_1-2" data-name="Layer 1"><path class="cls-1" d="M143,112.7c0,5.52,5.38,8.93,11.69,9.32,12.08.92,23.77,9.06,23.77,21.67v15.37c0,12.61-10.9,22.85-24,22.85-13.4,0-24.17-10.24-24.17-22.85V148.68h12.61v10.38c0,5.52,5.25,10.24,11.56,10.24s11.29-4.73,11.29-10.24V143.69c0-5.52-5.38-9.32-11.56-9.32-12.74,0-23.9-9.19-23.9-21.67V96.94c0-12.61,10.77-22.85,24.17-22.85s24,10.24,24,22.85v10.77H165.9V96.94c0-5.65-5.25-10.24-11.43-10.24C148,86.69,143,91.42,143,96.94Z"/><path class="cls-1" d="M226.44,159.58V74.09h12.74v85.5c0,12.35-10.9,22.46-24,22.46s-23.77-10.11-23.77-22.46V74.09H204v85.5c0,5.38,5.12,9.85,11.16,9.85S226.44,165,226.44,159.58Z"/><path class="cls-1" d="M264.26,112.7c0,5.52,5.38,8.93,11.69,9.32,12.08.92,23.77,9.06,23.77,21.67v15.37c0,12.61-10.9,22.85-24,22.85-13.4,0-24.17-10.24-24.17-22.85V148.68h12.61v10.38c0,5.52,5.25,10.24,11.56,10.24S287,164.57,287,159.06V143.69c0-5.52-5.38-9.32-11.56-9.32-12.74,0-23.9-9.19-23.9-21.67V96.94c0-12.61,10.77-22.85,24.17-22.85s24,10.24,24,22.85v10.77H287.11V96.94c0-5.65-5.25-10.24-11.43-10.24-6.44,0-11.43,4.73-11.43,10.24Z"/><path class="cls-1" d="M337.54,181.39H324.93V86.69H307.86V74.09h46.49V86.69H337.54Z"/><path class="cls-1" d="M397.95,181.39l-6.17-26.53H374l-5.91,26.53h-13L376.8,74.09h11.69L411,181.39Zm-8.54-39.27-6.7-32.31c-2.1,10.51-3.94,20.49-6.3,32.31Z"/><path class="cls-1" d="M432.62,181.39H420V74.09h12.61Z"/><path class="cls-1" d="M458.88,181.39H446.27V74.09h13.66L483,142.64V74.09h12.61v107.3H484l-25.08-70.66Z"/><path class="cls-1" d="M547.92,181.39l-6.17-26.53H524l-5.91,26.53h-13l21.67-107.3h11.69l22.46,107.3Zm-8.54-39.27-6.7-32.31c-2.1,10.51-3.94,20.49-6.3,32.31Z"/><path class="cls-1" d="M569.59,74.09h24.3a24.16,24.16,0,0,1,24.17,24v13.53a23.57,23.57,0,0,1-6.7,16.42,26.25,26.25,0,0,1,10.51,21v6.3a25.92,25.92,0,0,1-26.13,26H569.59ZM582.2,86.69v36.38h11.69a11.61,11.61,0,0,0,11.43-11.43V98.12a11.61,11.61,0,0,0-11.43-11.43Zm0,49v33.1h13.53a13.45,13.45,0,0,0,13.4-13.4v-6.3a13.45,13.45,0,0,0-13.4-13.4Z"/><path class="cls-1" d="M667.69,181.39H632.62V74.09h12.61v94.69h22.46Z"/><path class="cls-1" d="M718.25,74.09V86.69H689.62v36.25H714.7v12.61H689.62v33.23h28.63v12.61H677V74.09Z"/><path class="cls-1" d="M550.55,202l8.37,44.1,8.15-44.1h7.13l-10.7,59.45h-9.17L543.42,202Z"/><path class="cls-1" d="M597.41,261.49,594,246.79h-9.82l-3.28,14.7h-7.2l12-59.45h6.48l12.44,59.45Zm-4.73-21.76L589,221.83c-1.17,5.82-2.18,11.35-3.49,17.9Z"/><path class="cls-1" d="M629.14,261.49H609.71V202h7V254.5h12.44Z"/><path class="cls-1" d="M654,261.49H634.53V202h7V254.5H654Z"/><path class="cls-1" d="M682,202v7H666.11V229.1H680v7h-13.9V254.5H682v7H659.12V202Z"/><path class="cls-1" d="M698.93,261.49V232.82c-4.15-9.53-9.39-21.32-13.54-30.78H693l9.39,21.32c3.06-7.06,6.48-14.63,9.39-21.32h7.64l-13.54,30.78v28.67Z"/><path class="cls-2" d="M134.91,21.39c0,3.06,3,4.95,6.48,5.17,6.69.51,13.17,5,13.17,12v8.51c0,7-6,12.66-13.32,12.66s-13.39-5.68-13.39-12.66V41.33h7v5.75c0,3.06,2.91,5.68,6.4,5.68s6.26-2.62,6.26-5.68V38.57c0-3.06-3-5.17-6.4-5.17-7.06,0-13.24-5.09-13.24-12V12.66c0-7,6-12.66,13.39-12.66s13.32,5.68,13.32,12.66v6h-7v-6c0-3.13-2.91-5.68-6.33-5.68s-6.33,2.62-6.33,5.68Z"/><path class="cls-2" d="M183.15,59.45h-6.26l-8.66-32.67V59.45h-7V0h7.57L180,45,191.3,0H198V59.45h-7.06V27.07Z"/><path class="cls-2" d="M226.88,59.45l-3.42-14.7h-9.82l-3.27,14.7h-7.2L215.16,0h6.48l12.44,59.45Zm-4.73-21.76-3.71-17.9c-1.16,5.82-2.18,11.35-3.49,17.9Z"/><path class="cls-2" d="M246.38,59.45h-7.06V0H252a12.73,12.73,0,0,1,12.73,12.66v8.88a13.15,13.15,0,0,1-3.78,8.88A12.86,12.86,0,0,1,265.22,40V59.45h-7.06V40a6,6,0,0,0-5.82-5.89h-6Zm0-52.47V27.14h5.89a5.5,5.5,0,0,0,5.31-5.6V12.66A5.62,5.62,0,0,0,252,7Z"/><path class="cls-2" d="M285.16,59.45h-7V7h-9.46V0h25.76V7h-9.31Z"/><path class="cls-3" d="M36.32,300.23h-32v-43c0-31.33,26.66-56,57.32-56,31.33,0,57.32,26,57.32,56,0,38.32.33,39.32.33,48.65,0,42.66-24.66,59.32-47.66,74.32-22.33,14.33-43.66,36-38,61.65H124.3v31.66H0V449.86c0-40.66,6.67-65.32,43.32-89,26-16.33,44.32-28.33,44.32-54L87,257.24c-.33-13.66-12.33-24.33-25.33-24.33-13.33,0-25.33,11.33-25.33,24.33Z"/><path class="cls-3" d="M155,411.54V266.24c0-37,31.33-65,67.32-65,35.66,0,67,28,67,65v145.3c0,37-31.33,65-67,65C186.28,476.52,155,448.53,155,411.54Zm31.66-145.3V399.88l59.65-158c-6-5.33-15.33-9.33-24-9.33C203.61,232.58,186.62,247.24,186.62,266.24Zm70.65,145.3v-110l-53,139a39.11,39.11,0,0,0,18,4.67C240.94,445.2,257.27,430.53,257.27,411.54Z"/><path class="cls-3" d="M355.57,473.52V260.24c-12,3-26.66,1.67-39,1.67v-32h11c12,0,28,.33,28-12V201.26h32V473.52Z"/><path class="cls-3" d="M453.88,473.52H420.55l73-240.27h-88v-32h122.3v28.66Z"/></g></g></svg>