<svg xmlns="http://www.w3.org/2000/svg" viewBox="0 0 970.72 300.03"><defs><style>.cls-1{fill:#8d6e63;}.cls-2{fill:#bba8a1;}.cls-3{fill:#6a534a;}.cls-4{fill:#a48b82;}</style></defs><title>branch</title><g id="Layer_2" data-name="Layer 2"><g id="Layer_1-2" data-name="Layer 1"><polygon class="cls-1" points="0 117.01 196.71 99.01 196.71 231.02 0 279.03 0 117.01"/><polygon class="cls-1" points="196.71 99.01 358.72 99.01 292.72 222.02 196.71 231.02 196.71 99.01"/><polygon class="cls-1" points="292.72 222.02 387.58 300.03 424.73 261.03 373.73 204.02 610.75 189.02 845.44 54.01 970.72 54.01 970.72 0 845.44 12 752.92 39 661.75 99.01 358.72 99.01 292.72 222.02"/><polygon class="cls-2" points="970.72 0 953.07 15.15 840.4 25.82 748.4 55.15 659.74 119.82 635.74 132.48 661.75 99.01 752.92 39 845.44 12 970.72 0"/><polygon class="cls-2" points="635.74 132.48 196.71 159.15 196.71 99.01 661.75 99.01 635.74 132.48"/><polygon class="cls-3" points="953.07 15.15 970.72 54.01 970.72 0 953.07 15.15"/><polygon class="cls-3" points="424.73 261.03 379.74 273.15 387.58 300.03 424.73 261.03"/><polygon class="cls-4" points="379.74 273.15 308.4 192.79 292.72 222.02 387.58 300.03 379.74 273.15"/><polygon class="cls-2" points="196.71 159.15 0 150.01 0 117.01 196.71 99.01 196.71 159.15"/></g></g></svg>