<svg id="Layer_1" data-name="Layer 1" xmlns="http://www.w3.org/2000/svg" viewBox="0 0 193.69 255.88"><defs><style>.cls-1{fill:#ccff90;}.cls-2{fill:#64dd17;}.cls-3{fill:#8bc34a;}.cls-4{fill:#33691e;}.cls-5{fill:#d500f9;}</style></defs><title>fuglelogo</title><polygon class="cls-1" points="82.51 95.04 38.97 207.31 93.66 207.31 133.24 157.29 82.51 95.04"/><polygon class="cls-2" points="82.51 95.04 169.23 8.32 133.24 157.29 82.51 95.04"/><rect class="cls-3" x="74.05" y="243.13" width="14.57" height="12.75"/><polygon class="cls-4" points="64.28 142.03 14.86 188.59 16.3 207.31 38.97 207.31 64.28 142.03"/><polygon class="cls-2" points="56.92 148.97 35.37 129.94 29.97 129.94 14.86 138.38 14.86 188.59 56.92 148.97"/><polygon class="cls-3" points="16.3 207.31 74.59 249.43 88.62 253.45 151.23 253.45 38.97 207.31 16.3 207.31"/><polygon class="cls-4" points="151.23 253.45 193.69 245.99 93.66 207.31 38.97 207.31 151.23 253.45"/><polygon class="cls-1" points="14.86 168.78 56.92 148.97 14.86 188.59 14.86 168.78"/><polygon class="cls-1" points="82.51 95.04 116.33 0 125.87 51.68 82.51 95.04"/><path class="cls-5" d="M6.76,144.43" transform="translate(0 -0.99)"/><polygon class="cls-4" points="6.76 143.44 0 147.93 6.76 147.93 14.86 147.93 14.86 138.38 6.76 143.44"/></svg>