<?xml version="1.0" encoding="utf-8"?>
<!-- Generator: Adobe Illustrator 21.0.0, SVG Export Plug-In . SVG Version: 6.00 Build 0)  -->
<svg version="1.1" id="Layer_1" xmlns="http://www.w3.org/2000/svg" xmlns:xlink="http://www.w3.org/1999/xlink" x="0px" y="0px"
	 width="841.9px" height="595.3px" viewBox="0 0 841.9 595.3" style="enable-background:new 0 0 841.9 595.3;" xml:space="preserve"
	>
<style type="text/css">
	.st0{fill:#CCFF90;}
	.st1{fill:#64DD17;}
	.st2{fill:#8BC34A;}
	.st3{fill:#33691E;}
	.st4{fill:#D500F9;}
</style>
<g>
	<polygon class="st0" points="424.2,210.8 355.3,388.3 441.8,388.3 504.4,309.2 	"/>
	<polygon class="st1" points="424.2,210.8 561.3,73.6 504.4,309.2 	"/>
	<rect x="410.8" y="445" class="st2" width="23" height="20.2"/>
	<polygon class="st3" points="395.4,285.1 317.2,358.7 319.5,388.3 355.3,388.3 	"/>
	<polygon class="st1" points="383.7,296 349.6,266 341.1,266 317.2,279.3 317.2,358.7 	"/>
	<polygon class="st2" points="319.5,388.3 411.7,454.9 433.9,461.3 532.9,461.3 355.3,388.3 	"/>
	<polygon class="st3" points="532.9,461.3 600,449.5 441.8,388.3 355.3,388.3 	"/>
	<polygon class="st3" points="317.2,279.3 304.4,287.3 304.4,294.4 317.2,294.4 	"/>
	<polygon class="st0" points="317.2,327.4 383.7,296 317.2,358.7 	"/>
	<polygon class="st0" points="424.2,210.8 477.7,60.5 492.8,142.2 	"/>
	<path class="st4" d="M304.4,287.3"/>
	<polygon class="st3" points="293.7,294.4 304.4,294.4 304.4,287.3 304.4,287.3 	"/>
</g>
</svg>
