<svg id="Layer_1" data-name="Layer 1" xmlns="http://www.w3.org/2000/svg" viewBox="0 0 719.45 476.52"><defs><style>.cls-1{fill:#ff5722;}.cls-2{fill:#2196f3;}.cls-3{fill:#8bc34a;}</style></defs><title>logotext</title><path class="cls-1" d="M194.34,112.7c0,5.52,5.38,8.93,11.69,9.32,12.08.92,23.77,9.06,23.77,21.67v15.37c0,12.61-10.9,22.85-24,22.85-13.4,0-24.17-10.24-24.17-22.85V148.68H194.2v10.38c0,5.52,5.25,10.24,11.56,10.24s11.29-4.73,11.29-10.24V143.69c0-5.52-5.38-9.32-11.56-9.32-12.74,0-23.9-9.19-23.9-21.67V96.94c0-12.61,10.77-22.85,24.17-22.85s24,10.24,24,22.85v10.77H217.19V96.94c0-5.65-5.25-10.24-11.43-10.24-6.44,0-11.43,4.73-11.43,10.24Z" transform="translate(-51.29)"/><path class="cls-1" d="M277.73,159.58V74.09h12.74v85.5c0,12.35-10.9,22.46-24,22.46s-23.77-10.11-23.77-22.46V74.09h12.61v85.5c0,5.38,5.12,9.85,11.16,9.85S277.73,165,277.73,159.58Z" transform="translate(-51.29)"/><path class="cls-1" d="M315.55,112.7c0,5.52,5.38,8.93,11.69,9.32,12.08.92,23.77,9.06,23.77,21.67v15.37c0,12.61-10.9,22.85-24,22.85-13.4,0-24.17-10.24-24.17-22.85V148.68h12.61v10.38c0,5.52,5.25,10.24,11.56,10.24s11.29-4.73,11.29-10.24V143.69c0-5.52-5.38-9.32-11.56-9.32-12.74,0-23.9-9.19-23.9-21.67V96.94c0-12.61,10.77-22.85,24.17-22.85s24,10.24,24,22.85v10.77H338.4V96.94c0-5.65-5.25-10.24-11.43-10.24-6.44,0-11.43,4.73-11.43,10.24Z" transform="translate(-51.29)"/><path class="cls-1" d="M388.83,181.39H376.22V86.69H359.15V74.09h46.49V86.69H388.83Z" transform="translate(-51.29)"/><path class="cls-1" d="M449.24,181.39l-6.17-26.53H425.33l-5.91,26.53h-13l21.67-107.3h11.69l22.46,107.3Zm-8.54-39.27L434,109.81c-2.1,10.51-3.94,20.49-6.3,32.31Z" transform="translate(-51.29)"/><path class="cls-1" d="M483.91,181.39H471.3V74.09h12.61Z" transform="translate(-51.29)"/><path class="cls-1" d="M510.17,181.39H497.56V74.09h13.66l23.11,68.56V74.09h12.61v107.3H535.26l-25.08-70.66Z" transform="translate(-51.29)"/><path class="cls-1" d="M599.21,181.39,593,154.86H575.31l-5.91,26.53h-13l21.67-107.3h11.69l22.46,107.3Zm-8.54-39.27L584,109.81c-2.1,10.51-3.94,20.49-6.3,32.31Z" transform="translate(-51.29)"/><path class="cls-1" d="M620.88,74.09h24.3a24.16,24.16,0,0,1,24.17,24v13.53a23.57,23.57,0,0,1-6.7,16.42,26.25,26.25,0,0,1,10.51,21v6.3a25.92,25.92,0,0,1-26.13,26H620.88Zm12.61,12.61v36.38h11.69a11.61,11.61,0,0,0,11.43-11.43V98.12a11.61,11.61,0,0,0-11.43-11.43Zm0,49v33.1H647a13.45,13.45,0,0,0,13.4-13.4v-6.3a13.45,13.45,0,0,0-13.4-13.4Z" transform="translate(-51.29)"/><path class="cls-1" d="M719,181.39H683.91V74.09h12.61v94.69H719Z" transform="translate(-51.29)"/><path class="cls-1" d="M769.54,74.09V86.69H740.91v36.25H766v12.61H740.91v33.23h28.63v12.61H728.3V74.09Z" transform="translate(-51.29)"/><path class="cls-1" d="M601.84,202l8.37,44.1,8.15-44.1h7.13l-10.7,59.45h-9.17L594.71,202Z" transform="translate(-51.29)"/><path class="cls-1" d="M648.7,261.49l-3.42-14.7h-9.82l-3.28,14.7H625L637,202h6.48l12.44,59.45ZM644,239.73l-3.71-17.9c-1.17,5.82-2.18,11.35-3.49,17.9Z" transform="translate(-51.29)"/><path class="cls-1" d="M680.43,261.49H661V202h7V254.5h12.44Z" transform="translate(-51.29)"/><path class="cls-1" d="M705.25,261.49H685.82V202h7V254.5h12.44Z" transform="translate(-51.29)"/><path class="cls-1" d="M733.26,202v7H717.4V229.1h13.9v7H717.4V254.5h15.86v7H710.41V202Z" transform="translate(-51.29)"/><path class="cls-1" d="M750.22,261.49V232.82c-4.15-9.53-9.39-21.32-13.54-30.78h7.64l9.39,21.32c3.06-7.06,6.48-14.63,9.39-21.32h7.64L757.2,232.82v28.67Z" transform="translate(-51.29)"/><path class="cls-2" d="M186.19,21.39c0,3.06,3,4.95,6.48,5.17,6.69.51,13.17,5,13.17,12v8.51c0,7-6,12.66-13.32,12.66s-13.39-5.68-13.39-12.66V41.33h7v5.75c0,3.06,2.91,5.68,6.4,5.68s6.26-2.62,6.26-5.68V38.57c0-3.06-3-5.17-6.4-5.17-7.06,0-13.24-5.09-13.24-12V12.66c0-7,6-12.66,13.39-12.66s13.32,5.68,13.32,12.66v6h-7v-6c0-3.13-2.91-5.68-6.33-5.68s-6.33,2.62-6.33,5.68Z" transform="translate(-51.29)"/><path class="cls-2" d="M234.44,59.45h-6.26l-8.66-32.67V59.45h-7V0h7.57l11.21,45L242.59,0h6.69V59.45h-7.06V27.07Z" transform="translate(-51.29)"/><path class="cls-2" d="M278.17,59.45l-3.42-14.7h-9.82l-3.27,14.7h-7.2L266.45,0h6.48l12.44,59.45Zm-4.73-21.76-3.71-17.9c-1.16,5.82-2.18,11.35-3.49,17.9Z" transform="translate(-51.29)"/><path class="cls-2" d="M297.67,59.45h-7.06V0h12.66A12.73,12.73,0,0,1,316,12.66v8.88a13.15,13.15,0,0,1-3.78,8.88A12.86,12.86,0,0,1,316.51,40V59.45h-7.06V40a6,6,0,0,0-5.82-5.89h-6Zm0-52.47V27.14h5.89a5.5,5.5,0,0,0,5.31-5.6V12.66A5.62,5.62,0,0,0,303.27,7Z" transform="translate(-51.29)"/><path class="cls-2" d="M336.45,59.45h-7V7H320V0h25.76V7h-9.31Z" transform="translate(-51.29)"/><path class="cls-3" d="M87.61,300.23h-32v-43c0-31.33,26.66-56,57.32-56,31.33,0,57.32,26,57.32,56,0,38.32.33,39.32.33,48.65,0,42.66-24.66,59.32-47.66,74.32-22.33,14.33-43.66,36-38,61.65h90.64v31.66H51.29V449.86c0-40.66,6.67-65.32,43.32-89,26-16.33,44.32-28.33,44.32-54l-.67-49.65c-.33-13.66-12.33-24.33-25.33-24.33-13.33,0-25.33,11.33-25.33,24.33Z" transform="translate(-51.29)"/><path class="cls-3" d="M206.25,411.54V266.24c0-37,31.33-65,67.32-65,35.66,0,67,28,67,65v145.3c0,37-31.33,65-67,65C237.57,476.52,206.25,448.53,206.25,411.54Zm31.66-145.3V399.88l59.65-158c-6-5.33-15.33-9.33-24-9.33C254.9,232.58,237.91,247.24,237.91,266.24Zm70.65,145.3v-110l-53,139a39.11,39.11,0,0,0,18,4.67C292.23,445.2,308.55,430.53,308.55,411.54Z" transform="translate(-51.29)"/><path class="cls-3" d="M406.86,473.52V260.24c-12,3-26.66,1.67-39,1.67v-32h11c12,0,28,.33,28-12V201.26h32V473.52Z" transform="translate(-51.29)"/><path class="cls-3" d="M505.16,473.52H471.84l73-240.27h-88v-32h122.3v28.66Z" transform="translate(-51.29)"/></svg>