<svg id="Layer_1" data-name="Layer 1" xmlns="http://www.w3.org/2000/svg" viewBox="0 0 770.92 476.75"><defs><style>.cls-1{fill:#ff5722;}.cls-2{fill:#2196f3;}.cls-3{fill:#8bc34a;}</style></defs><title>VÆRSGOHERNAMINGCONVENTION</title><path class="cls-1" d="M194.34,112.68c0,5.52,5.38,8.93,11.69,9.32,12.08.92,23.77,9.06,23.77,21.67V159c0,12.61-10.9,22.85-24,22.85-13.4,0-24.17-10.24-24.17-22.85V148.67H194.2V159c0,5.52,5.25,10.24,11.56,10.24s11.29-4.73,11.29-10.24V143.68c0-5.52-5.38-9.32-11.56-9.32-12.74,0-23.9-9.19-23.9-21.67V96.92c0-12.61,10.77-22.85,24.17-22.85s24,10.24,24,22.85v10.77H217.19V96.92c0-5.65-5.25-10.24-11.43-10.24-6.44,0-11.43,4.73-11.43,10.24Z"/><path class="cls-1" d="M277.73,159.57V74.07h12.74v85.5c0,12.35-10.9,22.46-24,22.46s-23.77-10.11-23.77-22.46V74.07h12.61v85.5c0,5.38,5.12,9.85,11.16,9.85S277.73,165,277.73,159.57Z"/><path class="cls-1" d="M315.55,112.68c0,5.52,5.38,8.93,11.69,9.32,12.08.92,23.77,9.06,23.77,21.67V159c0,12.61-10.9,22.85-24,22.85-13.4,0-24.17-10.24-24.17-22.85V148.67h12.61V159c0,5.52,5.25,10.24,11.56,10.24s11.29-4.73,11.29-10.24V143.68c0-5.52-5.38-9.32-11.56-9.32-12.74,0-23.9-9.19-23.9-21.67V96.92c0-12.61,10.77-22.85,24.17-22.85s24,10.24,24,22.85v10.77H338.4V96.92c0-5.65-5.25-10.24-11.43-10.24-6.44,0-11.43,4.73-11.43,10.24Z"/><path class="cls-1" d="M388.83,181.37H376.22V86.68H359.15V74.07h46.49V86.68H388.83Z"/><path class="cls-1" d="M449.24,181.37l-6.17-26.53H425.33l-5.91,26.53h-13l21.67-107.3h11.69l22.46,107.3ZM440.7,142.1,434,109.8c-2.1,10.51-3.94,20.49-6.3,32.31Z"/><path class="cls-1" d="M483.91,181.37H471.3V74.07h12.61Z"/><path class="cls-1" d="M510.17,181.37H497.56V74.07h13.66l23.11,68.56V74.07h12.61v107.3H535.26l-25.08-70.66Z"/><path class="cls-1" d="M599.21,181.37,593,154.84H575.31l-5.91,26.53h-13l21.67-107.3h11.69l22.46,107.3Zm-8.54-39.27L584,109.8c-2.1,10.51-3.94,20.49-6.3,32.31Z"/><path class="cls-1" d="M620.88,74.07h24.3a24.16,24.16,0,0,1,24.17,24v13.53a23.57,23.57,0,0,1-6.7,16.42,26.25,26.25,0,0,1,10.51,21v6.3a25.92,25.92,0,0,1-26.13,26H620.88Zm12.61,12.61v36.38h11.69a11.61,11.61,0,0,0,11.43-11.43V98.11a11.61,11.61,0,0,0-11.43-11.43Zm0,49v33.1H647a13.45,13.45,0,0,0,13.4-13.4v-6.3a13.45,13.45,0,0,0-13.4-13.4Z"/><path class="cls-1" d="M719,181.37H683.91V74.07h12.61v94.69H719Z"/><path class="cls-1" d="M769.54,74.07V86.68H740.91v36.25H766v12.61H740.91v33.23h28.63v12.61H728.3V74.07Z"/><path class="cls-1" d="M601.84,202l8.37,44.1,8.15-44.1h7.13l-10.7,59.45h-9.17L594.71,202Z"/><path class="cls-1" d="M648.7,261.47l-3.42-14.7h-9.82l-3.28,14.7H625L637,202h6.48l12.44,59.45ZM644,239.72l-3.71-17.9c-1.17,5.82-2.18,11.35-3.49,17.9Z"/><path class="cls-1" d="M680.43,261.47H661V202h7v52.47h12.44Z"/><path class="cls-1" d="M705.25,261.47H685.82V202h7v52.47h12.44Z"/><path class="cls-1" d="M733.26,202v7H717.4v20.08h13.9v7H717.4v18.41h15.86v7H710.41V202Z"/><path class="cls-1" d="M750.22,261.47V232.8c-4.15-9.53-9.39-21.32-13.54-30.78h7.64l9.39,21.32c3.06-7.06,6.48-14.63,9.39-21.32h7.64L757.2,232.8v28.67Z"/><path class="cls-2" d="M186.19,21.38c0,3.06,3,4.95,6.48,5.17,6.69.51,13.17,5,13.17,12v8.51c0,7-6,12.66-13.32,12.66s-13.39-5.68-13.39-12.66V41.32h7v5.75c0,3.06,2.91,5.68,6.4,5.68s6.26-2.62,6.26-5.68V38.55c0-3.06-3-5.17-6.4-5.17-7.06,0-13.24-5.09-13.24-12V12.65c0-7,6-12.66,13.39-12.66s13.32,5.68,13.32,12.66v6h-7v-6c0-3.13-2.91-5.68-6.33-5.68s-6.33,2.62-6.33,5.68Z"/><path class="cls-2" d="M234.44,59.44h-6.26l-8.66-32.67V59.44h-7V0h7.57l11.21,45L242.59,0h6.69V59.44h-7.06V27.06Z"/><path class="cls-2" d="M278.17,59.44l-3.42-14.7h-9.82l-3.27,14.7h-7.2L266.45,0h6.48l12.44,59.45Zm-4.73-21.76-3.71-17.9c-1.16,5.82-2.18,11.35-3.49,17.9Z"/><path class="cls-2" d="M297.67,59.44h-7.06V0h12.66A12.73,12.73,0,0,1,316,12.65v8.88a13.15,13.15,0,0,1-3.78,8.88A12.86,12.86,0,0,1,316.51,40V59.44h-7.06V40a6,6,0,0,0-5.82-5.89h-6Zm0-52.47V27.13h5.89a5.5,5.5,0,0,0,5.31-5.6V12.65A5.62,5.62,0,0,0,303.27,7Z"/><path class="cls-2" d="M336.45,59.44h-7V7H320V0h25.76V7h-9.31Z"/><path class="cls-3" d="M87.61,300.22h-32v-43c0-31.33,26.66-56,57.32-56,31.33,0,57.32,26,57.32,56,0,38.32.33,39.32.33,48.65,0,42.66-24.66,59.32-47.66,74.32-22.33,14.33-43.66,36-38,61.65h90.64v31.66H51.29V449.85c0-40.66,6.67-65.32,43.32-89,26-16.33,44.32-28.33,44.32-54l-.67-49.65c-.33-13.66-12.33-24.33-25.33-24.33-13.33,0-25.33,11.33-25.33,24.33Z"/><path class="cls-3" d="M206.25,411.53V266.23c0-37,31.33-65,67.32-65,35.66,0,67,28,67,65v145.3c0,37-31.33,65-67,65C237.57,476.51,206.25,448.52,206.25,411.53Zm31.66-145.3V399.86l59.65-158c-6-5.33-15.33-9.33-24-9.33C254.9,232.57,237.91,247.23,237.91,266.23Zm70.65,145.3v-110l-53,139a39.11,39.11,0,0,0,18,4.67C292.23,445.18,308.55,430.52,308.55,411.53Z"/><path class="cls-3" d="M406.86,473.51V260.23c-12,3-26.66,1.67-39,1.67v-32h11c12,0,28,.33,28-12V201.24h32V473.51Z"/><path class="cls-3" d="M505.16,473.51H471.84l73-240.27h-88v-32h122.3V229.9Z"/></svg>