<?xml version="1.0" encoding="utf-8"?>
<!-- Generator: Adobe Illustrator 21.0.0, SVG Export Plug-In . SVG Version: 6.00 Build 0)  -->
<svg version="1.1" id="Layer_1" xmlns="http://www.w3.org/2000/svg" xmlns:xlink="http://www.w3.org/1999/xlink" x="0px" y="0px"
	 width="841.9px" height="595.3px" viewBox="0 0 841.9 595.3" style="enable-background:new 0 0 841.9 595.3;" xml:space="preserve"
	>
<style type="text/css">
	.st0{fill:#FF5722;}
	.st1{fill:#2196F3;}
	.st2{fill:#8BC34A;}
</style>
<g>
	<path class="st0" d="M245.4,151.1c0,5.5,5.4,8.9,11.7,9.3c12.1,0.9,23.8,9.1,23.8,21.7v15.4c0,12.6-10.9,22.9-24,22.9
		c-13.4,0-24.2-10.2-24.2-22.9v-10.4h12.6v10.4c0,5.5,5.3,10.2,11.6,10.2c6.3,0,11.3-4.7,11.3-10.2v-15.4c0-5.5-5.4-9.3-11.6-9.3
		c-12.7,0-23.9-9.2-23.9-21.7v-15.8c0-12.6,10.8-22.9,24.2-22.9c13.4,0,24,10.2,24,22.9v10.8h-12.6v-10.8c0-5.6-5.3-10.2-11.4-10.2
		c-6.4,0-11.4,4.7-11.4,10.2V151.1z"/>
	<path class="st0" d="M328.8,198v-85.5h12.7V198c0,12.4-10.9,22.5-24,22.5c-13,0-23.8-10.1-23.8-22.5v-85.5h12.6V198
		c0,5.4,5.1,9.9,11.2,9.9C323.6,207.8,328.8,203.4,328.8,198z"/>
	<path class="st0" d="M366.7,151.1c0,5.5,5.4,8.9,11.7,9.3c12.1,0.9,23.8,9.1,23.8,21.7v15.4c0,12.6-10.9,22.9-24,22.9
		c-13.4,0-24.2-10.2-24.2-22.9v-10.4h12.6v10.4c0,5.5,5.3,10.2,11.6,10.2c6.3,0,11.3-4.7,11.3-10.2v-15.4c0-5.5-5.4-9.3-11.6-9.3
		c-12.7,0-23.9-9.2-23.9-21.7v-15.8c0-12.6,10.8-22.9,24.2-22.9c13.4,0,24,10.2,24,22.9v10.8h-12.6v-10.8c0-5.6-5.3-10.2-11.4-10.2
		c-6.4,0-11.4,4.7-11.4,10.2V151.1z"/>
	<path class="st0" d="M440,219.8h-12.6v-94.7h-17.1v-12.6h46.5v12.6H440V219.8z"/>
	<path class="st0" d="M500.4,219.8l-6.2-26.5h-17.7l-5.9,26.5h-13l21.7-107.3H491l22.5,107.3H500.4z M491.9,180.5l-6.7-32.3
		c-2.1,10.5-3.9,20.5-6.3,32.3H491.9z"/>
	<path class="st0" d="M535.1,219.8h-12.6V112.5h12.6V219.8z"/>
	<path class="st0" d="M561.4,219.8h-12.6V112.5h13.7l23.1,68.6v-68.6h12.6v107.3h-11.7l-25.1-70.7V219.8z"/>
	<path class="st0" d="M650.5,219.8l-6.2-26.5h-17.7l-5.9,26.5h-13l21.7-107.3H641l22.5,107.3H650.5z M641.9,180.5l-6.7-32.3
		c-2.1,10.5-3.9,20.5-6.3,32.3H641.9z"/>
	<path class="st0" d="M672.2,112.5h24.3c13.3,0,24.2,10.8,24.2,24V150c0,6.6-2.6,12.1-6.7,16.4c6.6,4.9,10.5,12.7,10.5,21v6.3
		c0,14.6-11.7,26-26.1,26h-26.1V112.5z M684.8,125.1v36.4h11.7c6.2,0,11.4-5.3,11.4-11.4v-13.5c0-6.2-5.3-11.4-11.4-11.4H684.8z
		 M684.8,174.1v33.1h13.5c7.4,0,13.4-6,13.4-13.4v-6.3c0-7.4-6-13.4-13.4-13.4H684.8z"/>
	<path class="st0" d="M770.3,219.8h-35.1V112.5h12.6v94.7h22.5V219.8z"/>
	<path class="st0" d="M820.9,112.5v12.6h-28.6v36.3h25.1v12.6h-25.1v33.2h28.6v12.6h-41.3V112.5H820.9z"/>
</g>
<g>
	<path class="st0" d="M653.1,240.5l8.4,44.1l8.2-44.1h7.1l-10.7,59.5h-9.2L646,240.5H653.1z"/>
	<path class="st0" d="M700,299.9l-3.4-14.7h-9.8l-3.3,14.7h-7.2l12-59.5h6.5l12.4,59.5H700z M695.3,278.2l-3.7-17.9
		c-1.2,5.8-2.2,11.4-3.5,17.9H695.3z"/>
	<path class="st0" d="M731.7,299.9h-19.4v-59.5h7V293h12.4V299.9z"/>
	<path class="st0" d="M756.6,299.9h-19.4v-59.5h7V293h12.4V299.9z"/>
	<path class="st0" d="M784.6,240.5v7h-15.9v20.1h13.9v7h-13.9V293h15.9v7h-22.9v-59.5H784.6z"/>
	<path class="st0" d="M801.6,299.9v-28.7c-4.1-9.5-9.4-21.3-13.5-30.8h7.6l9.4,21.3c3.1-7.1,6.5-14.6,9.4-21.3h7.6l-13.5,30.8v28.7
		H801.6z"/>
</g>
<g>
	<path class="st1" d="M237.3,59.7c0,3.1,3,5,6.5,5.2c6.7,0.5,13.2,5,13.2,12v8.5c0,7-6,12.7-13.3,12.7c-7.4,0-13.4-5.7-13.4-12.7
		v-5.8h7v5.8c0,3.1,2.9,5.7,6.4,5.7c3.5,0,6.3-2.6,6.3-5.7v-8.5c0-3.1-3-5.2-6.4-5.2c-7.1,0-13.2-5.1-13.2-12V51
		c0-7,6-12.7,13.4-12.7c7.4,0,13.3,5.7,13.3,12.7v6h-7v-6c0-3.1-2.9-5.7-6.3-5.7c-3.6,0-6.3,2.6-6.3,5.7V59.7z"/>
	<path class="st1" d="M285.5,97.8h-6.3l-8.7-32.7v32.7h-7V38.3h7.6l11.2,45.1l11.3-45.1h6.7v59.5h-7.1V65.4L285.5,97.8z"/>
	<path class="st1" d="M329.3,97.8l-3.4-14.7H316l-3.3,14.7h-7.2l12-59.5h6.5l12.4,59.5H329.3z M324.6,76l-3.7-17.9
		c-1.2,5.8-2.2,11.4-3.5,17.9H324.6z"/>
	<path class="st1" d="M348.8,97.8h-7.1V38.3h12.7c7,0,12.7,5.7,12.7,12.7v8.9c0,3.3-1.5,6.6-3.8,8.9c2.8,2.4,4.3,6,4.3,9.6v19.4
		h-7.1V78.4c0-3.2-2.7-5.9-5.8-5.9h-6V97.8z M348.8,45.3v20.2h5.9c3,0,5.3-2.6,5.3-5.6V51c0-3.1-2.5-5.7-5.6-5.7H348.8z"/>
	<path class="st1" d="M387.6,97.8h-7V45.3h-9.5v-7h25.8v7h-9.3V97.8z"/>
</g>
<g>
	<path class="st2" d="M138.6,338.7h-32v-43c0-31.3,26.7-56,57.3-56c31.3,0,57.3,26,57.3,56c0,38.3,0.3,39.3,0.3,48.7
		c0,42.7-24.7,59.3-47.7,74.3c-22.3,14.3-43.7,36-38,61.7h90.7v31.7H102.3v-23.7c0-40.7,6.7-65.3,43.3-89c26-16.3,44.3-28.3,44.3-54
		l-0.7-49.7C189,282,177,271.4,164,271.4c-13.3,0-25.3,11.3-25.3,24.3V338.7z"/>
	<path class="st2" d="M257.3,450.1V304.7c0-37,31.3-65,67.3-65c35.7,0,67,28,67,65v145.4c0,37-31.3,65-67,65
		C288.7,515.1,257.3,487.1,257.3,450.1z M289,304.7v133.7l59.7-158c-6-5.3-15.3-9.3-24-9.3C306,271,289,285.7,289,304.7z
		 M359.7,450.1V340l-53,139c5.7,3,12,4.7,18,4.7C343.4,483.7,359.7,469.1,359.7,450.1z"/>
	<path class="st2" d="M458,512.1V298.7c-12,3-26.7,1.7-39,1.7v-32h11c12,0,28,0.3,28-12v-16.7h32v272.4H458z"/>
	<path class="st2" d="M556.4,512.1h-33.3l73-240.4h-88v-32h122.4v28.7L556.4,512.1z"/>
</g>
</svg>
