<svg xmlns="http://www.w3.org/2000/svg" viewBox="0 0 3748.89 1637.36"><defs><style>.cls-1{fill:#325315;}.cls-2{fill:#ef8637;}.cls-3{fill:#8bc34a;}.cls-4{fill:#689238;}.cls-5{fill:#765945;}.cls-6{fill:#594334;}.cls-7{fill:#c5e1a5;}.cls-8{fill:#7cb342;}.cls-9{fill:#9ccc65;}.cls-10{fill:#689f38;}.cls-11{fill:#03a9f4;}.cls-12{fill:#039be5;}.cls-13{fill:#0288d1;}.cls-14{fill:#d84315;}.cls-15{fill:#5d4037;stroke:#231f20;stroke-width:6px;}.cls-15,.cls-25{stroke-miterlimit:10;}.cls-16{fill:#78909c;}.cls-17{fill:#b0bec5;}.cls-18{fill:#ffa98e;}.cls-19{fill:#ff8a65;}.cls-20{fill:#e06944;}.cls-21{fill:#f4511e;}.cls-22{fill:#bf360c;}.cls-23{fill:#732913;}.cls-24{fill:#cfd8dc;}.cls-25{fill:none;stroke:#732913;stroke-width:5px;}.cls-26{fill:#fbd6e3;}.cls-27{fill:#f48fb1;}.cls-28{fill:#f06695;}.cls-29{fill:#e91e63;}.cls-30{fill:#880e4f;}.cls-31{fill:#81d4fa;opacity:0.5;}</style></defs><title>park</title><g id="Layer_2" data-name="Layer 2"><g id="Layer_1-2" data-name="Layer 1"><path class="cls-1" d="M3431.69,475.77h-35a57.2,57.2,0,0,0-57.2,57.2v91.21a57,57,0,0,0,17.5,41.16V552.73a57.2,57.2,0,0,1,57.2-57.2h0a57.2,57.2,0,0,1,57.2,57.2V665.33a57,57,0,0,0,17.5-41.16V533A57.2,57.2,0,0,0,3431.69,475.77Z"/><polygon class="cls-1" points="3748.89 109.5 3748.89 624.18 3748.88 624.18 3748.88 1118.92 1178.64 1118.92 1213.13 1094.11 1687.87 619.37 3339.5 619.37 3339.5 109.5 3544.19 0 3748.89 109.5"/><path class="cls-1" d="M3301.69,475.77h-35a57.2,57.2,0,0,0-57.2,57.2v91.21a57,57,0,0,0,17.5,41.16V552.73a57.2,57.2,0,0,1,57.2-57.2h0a57.2,57.2,0,0,1,57.2,57.2V665.33a57,57,0,0,0,17.5-41.16V533A57.2,57.2,0,0,0,3301.69,475.77Z"/><path class="cls-1" d="M1861.07,475.77h-35a57.2,57.2,0,0,0-57.2,57.2v91.21a57,57,0,0,0,17.5,41.16V552.73a57.2,57.2,0,0,1,57.2-57.2h0a57.2,57.2,0,0,1,57.2,57.2V665.33a57,57,0,0,0,17.5-41.16V533A57.2,57.2,0,0,0,1861.07,475.77Z"/><path class="cls-1" d="M1991.07,475.77h-35a57.2,57.2,0,0,0-57.2,57.2v91.21a57,57,0,0,0,17.5,41.16V552.73a57.2,57.2,0,0,1,57.2-57.2h0a57.2,57.2,0,0,1,57.2,57.2V665.33a57,57,0,0,0,17.5-41.16V533A57.2,57.2,0,0,0,1991.07,475.77Z"/><path class="cls-1" d="M2124.69,475.77h-35a57.2,57.2,0,0,0-57.2,57.2v91.21a57,57,0,0,0,17.5,41.16V552.73a57.2,57.2,0,0,1,57.2-57.2h0a57.2,57.2,0,0,1,57.2,57.2V665.33a57,57,0,0,0,17.5-41.16V533A57.2,57.2,0,0,0,2124.69,475.77Z"/><path class="cls-1" d="M2254.69,475.77h-35a57.2,57.2,0,0,0-57.2,57.2v91.21a57,57,0,0,0,17.5,41.16V552.73a57.2,57.2,0,0,1,57.2-57.2h0a57.2,57.2,0,0,1,57.2,57.2V665.33a57,57,0,0,0,17.5-41.16V533A57.2,57.2,0,0,0,2254.69,475.77Z"/><path class="cls-1" d="M2384.69,475.77h-35a57.2,57.2,0,0,0-57.2,57.2v91.21a57,57,0,0,0,17.5,41.16V552.73a57.2,57.2,0,0,1,57.2-57.2h0a57.2,57.2,0,0,1,57.2,57.2V665.33a57,57,0,0,0,17.5-41.16V533A57.2,57.2,0,0,0,2384.69,475.77Z"/><path class="cls-1" d="M2514.69,475.77h-35a57.2,57.2,0,0,0-57.2,57.2v91.21a57,57,0,0,0,17.5,41.16V552.73a57.2,57.2,0,0,1,57.2-57.2h0a57.2,57.2,0,0,1,57.2,57.2V665.33a57,57,0,0,0,17.5-41.16V533A57.2,57.2,0,0,0,2514.69,475.77Z"/><path class="cls-1" d="M2648.07,475.77h-35a57.2,57.2,0,0,0-57.2,57.2v91.21a57,57,0,0,0,17.5,41.16V552.73a57.2,57.2,0,0,1,57.2-57.2h0a57.2,57.2,0,0,1,57.2,57.2V665.33a57,57,0,0,0,17.5-41.16V533A57.2,57.2,0,0,0,2648.07,475.77Z"/><path class="cls-1" d="M2778.07,475.77h-35a57.2,57.2,0,0,0-57.2,57.2v91.21a57,57,0,0,0,17.5,41.16V552.73a57.2,57.2,0,0,1,57.2-57.2h0a57.2,57.2,0,0,1,57.2,57.2V665.33a57,57,0,0,0,17.5-41.16V533A57.2,57.2,0,0,0,2778.07,475.77Z"/><path class="cls-1" d="M2911.69,475.77h-35a57.2,57.2,0,0,0-57.2,57.2v91.21a57,57,0,0,0,17.5,41.16V552.73a57.2,57.2,0,0,1,57.2-57.2h0a57.2,57.2,0,0,1,57.2,57.2V665.33a57,57,0,0,0,17.5-41.16V533A57.2,57.2,0,0,0,2911.69,475.77Z"/><path class="cls-1" d="M3041.69,475.77h-35a57.2,57.2,0,0,0-57.2,57.2v91.21a57,57,0,0,0,17.5,41.16V552.73a57.2,57.2,0,0,1,57.2-57.2h0a57.2,57.2,0,0,1,57.2,57.2V665.33a57,57,0,0,0,17.5-41.16V533A57.2,57.2,0,0,0,3041.69,475.77Z"/><path class="cls-1" d="M3171.69,475.77h-35a57.2,57.2,0,0,0-57.2,57.2v91.21a57,57,0,0,0,17.5,41.16V552.73a57.2,57.2,0,0,1,57.2-57.2h0a57.2,57.2,0,0,1,57.2,57.2V665.33a57,57,0,0,0,17.5-41.16V533A57.2,57.2,0,0,0,3171.69,475.77Z"/><rect class="cls-2" x="3413.01" y="1050.26" width="52.99" height="25.86"/><polygon class="cls-3" points="1528.12 1113.23 1823.74 63.96 2088.25 1113.23 1528.12 1113.23"/><polygon class="cls-4" points="1823.74 63.96 1823.74 1113.23 2088.25 1113.23 1823.74 63.96"/><polygon class="cls-5" points="1770.58 1113.23 1801.7 738.18 1823.74 408.2 1832.82 740.77 1832.82 895.56 1863.94 895.56 1840.6 930.08 1863.94 1113.23 1770.58 1113.23"/><polygon class="cls-6" points="1823.74 408.2 1817.26 906.74 1863.94 895.56 1832.82 895.56 1823.74 408.2"/><polygon class="cls-5" points="1808.18 712.25 1783.37 712.25 1798.59 775.65 1808.18 712.25"/><polyline class="cls-5" points="1817.08 508.04 1823.74 243.54 1823.57 494.43 1816.72 513.33"/><polygon class="cls-6" points="1825.06 478.71 1829.88 477.89 1825.79 518.09 1825.06 478.71"/><polygon class="cls-3" points="1795.78 1248.24 2091.4 198.97 2355.9 1248.24 1795.78 1248.24"/><polygon class="cls-4" points="2091.4 198.97 2091.4 1248.24 2355.9 1248.24 2091.4 198.97"/><polygon class="cls-5" points="2038.24 1248.24 2069.36 873.2 2091.4 543.22 2100.47 875.79 2100.47 1030.58 2131.59 1030.58 2108.25 1065.09 2131.59 1248.24 2038.24 1248.24"/><polygon class="cls-6" points="2091.4 543.22 2084.91 1041.75 2131.59 1030.58 2100.47 1030.58 2091.4 543.22"/><polygon class="cls-5" points="2075.84 847.26 2051.02 847.26 2066.25 910.66 2075.84 847.26"/><polyline class="cls-5" points="2084.73 643.05 2091.4 378.55 2091.22 629.44 2084.38 648.35"/><polygon class="cls-6" points="2092.71 613.72 2097.54 612.91 2093.44 653.1 2092.71 613.72"/><polygon class="cls-3" points="2543.82 1431.37 2839.44 382.1 3103.94 1431.37 2543.82 1431.37"/><polygon class="cls-4" points="2839.44 382.1 2839.44 1431.37 3103.94 1431.37 2839.44 382.1"/><polygon class="cls-5" points="2786.28 1431.37 2817.4 1056.32 2839.44 726.34 2848.51 1058.92 2848.51 1213.7 2879.63 1213.7 2856.29 1248.22 2879.63 1431.37 2786.28 1431.37"/><polygon class="cls-6" points="2839.44 726.34 2832.96 1224.88 2879.63 1213.7 2848.51 1213.7 2839.44 726.34"/><polygon class="cls-5" points="2823.88 1030.39 2799.07 1030.39 2814.29 1093.79 2823.88 1030.39"/><polyline class="cls-5" points="2832.77 826.18 2839.44 561.68 2839.26 812.57 2832.42 831.47"/><polygon class="cls-6" points="2840.75 796.85 2845.58 796.03 2841.49 836.23 2840.75 796.85"/><polygon class="cls-3" points="2220.93 1113.23 2516.55 63.96 2781.05 1113.23 2220.93 1113.23"/><polygon class="cls-4" points="2516.55 63.96 2516.55 1113.23 2781.05 1113.23 2516.55 63.96"/><polygon class="cls-5" points="2463.39 1113.23 2494.51 738.18 2516.55 408.2 2525.63 740.77 2525.63 895.56 2556.74 895.56 2533.41 930.08 2556.74 1113.23 2463.39 1113.23"/><polygon class="cls-6" points="2516.55 408.2 2510.07 906.74 2556.74 895.56 2525.63 895.56 2516.55 408.2"/><polygon class="cls-5" points="2500.99 712.25 2476.18 712.25 2491.4 775.65 2500.99 712.25"/><polyline class="cls-5" points="2509.88 508.04 2516.55 243.54 2516.37 494.43 2509.53 513.33"/><polygon class="cls-6" points="2517.86 478.71 2522.69 477.89 2518.6 518.09 2517.86 478.71"/><polygon class="cls-7" points="1847.93 1053.23 2549.27 1044.3 2189.17 1077.11 1847.93 1053.23"/><polygon class="cls-3" points="2959.43 1174.16 3255.05 124.9 3519.55 1174.16 2959.43 1174.16"/><polygon class="cls-4" points="3255.05 124.9 3255.05 1174.16 3519.55 1174.16 3255.05 124.9"/><polygon class="cls-5" points="3201.89 1174.16 3233.01 799.12 3255.05 469.14 3264.13 801.71 3264.13 956.5 3295.25 956.5 3271.91 991.01 3295.25 1174.16 3201.89 1174.16"/><polygon class="cls-6" points="3255.05 469.14 3248.57 967.67 3295.25 956.5 3264.13 956.5 3255.05 469.14"/><polygon class="cls-5" points="3239.49 773.18 3214.68 773.18 3229.9 836.58 3239.49 773.18"/><polyline class="cls-5" points="3248.38 568.97 3255.05 304.47 3254.87 555.36 3248.03 574.27"/><polygon class="cls-6" points="3256.36 539.64 3261.19 538.83 3257.1 579.02 3256.36 539.64"/><polygon class="cls-8" points="2053.55 1189.56 1777.52 1006.54 1644.08 1637.36 2202.07 1637.36 2053.55 1189.56"/><polygon class="cls-3" points="2053.55 1189.56 2202.07 1637.36 3259.67 1637.36 2053.55 1189.56"/><polygon class="cls-9" points="3748.88 1237.57 2724.48 1438.66 3259.67 1637.36 3748.88 1637.36 3748.88 1237.57"/><polygon class="cls-3" points="3215.2 963.23 2189.17 1077.11 3015.27 1204.85 3215.2 963.23"/><polygon class="cls-10" points="2778.16 1428.12 2689.61 1285.57 3661.71 1254.68 2778.16 1428.12"/><polygon class="cls-10" points="2689.61 1285.57 2362.35 1304.21 2724.48 1438.66 2778.16 1428.12 2689.61 1285.57"/><polygon class="cls-3" points="1777.52 1006.54 404.75 1488.09 763.28 1637.36 1644.08 1637.36 1777.52 1006.54"/><polygon class="cls-9" points="2053.55 1189.56 2362.35 1089.23 2613.2 1089.23 3111.2 1053.23 2689.61 1285.57 2362.35 1304.21 2053.55 1189.56"/><polygon class="cls-3" points="3111.2 1053.23 3361.3 1264.23 2689.61 1285.57 3111.2 1053.23"/><polygon class="cls-10" points="3111.2 1053.23 3215.2 963.23 3361.3 1264.23 3111.2 1053.23"/><polygon class="cls-3" points="3215.2 963.23 3748.88 1075.23 3748.88 1237.57 3661.71 1254.68 3361.3 1264.23 3215.2 963.23"/><polygon class="cls-9" points="1724.47 1025.15 1175.2 1099.23 815.2 1153.23 632.8 1408.1 1724.47 1025.15"/><polygon class="cls-8" points="815.2 1153.23 0 1287.23 0 1471.23 404.75 1488.09 632.8 1408.1 815.2 1153.23"/><polygon class="cls-3" points="815.2 1153.23 609.2 1073.23 0 1025.15 0 1287.23 815.2 1153.23"/><polygon class="cls-11" points="404.75 1488.09 0 1471.23 0 1637.36 763.28 1637.36 404.75 1488.09"/><polygon class="cls-12" points="0 1471.23 429.27 1595.77 404.75 1488.09 0 1471.23"/><polygon class="cls-13" points="404.75 1488.09 429.27 1595.77 534.78 1637.36 1008.63 1637.36 404.75 1488.09"/><polygon class="cls-12" points="429.27 1595.77 0 1616.54 0 1471.23 429.27 1595.77"/><polygon class="cls-8" points="609.2 1073.23 1213.13 1094.12 815.2 1153.23 609.2 1073.23"/><ellipse class="cls-4" cx="2662.7" cy="1167.04" rx="387.5" ry="59.81"/><ellipse class="cls-4" cx="303.31" cy="1135.16" rx="216.04" ry="40.41"/><polygon class="cls-3" points="1847.93 1053.23 2362.35 1089.23 2053.55 1189.56 1847.93 1053.23"/><polygon class="cls-14" points="2344.83 1158.22 2344.83 1049.17 2670.39 723.61 2670.39 1158.22 2344.83 1158.22"/><polygon class="cls-14" points="2995.95 1158.22 2995.95 1049.17 2670.39 723.61 2670.39 1158.22 2995.95 1158.22"/><line class="cls-15" x1="2670.39" y1="1158.22" x2="2670.39" y2="869.57"/><rect class="cls-16" x="2668.94" y="868.62" width="3.03" height="7.11"/><rect class="cls-17" x="2669.7" y="870.89" width="1.51" height="7.11"/><polygon class="cls-18" points="2344.83 1049.17 2500.04 1070.45 2670.39 723.61 2344.83 1049.17"/><polygon class="cls-19" points="2344.83 1049.17 2344.83 1158.22 2500.99 1194.81 2500.99 1070.45 2344.83 1049.17"/><rect class="cls-20" x="2500.99" y="1070.45" width="309.93" height="124.35"/><polygon class="cls-14" points="2670.39 723.61 2810.92 1070.45 2500.99 1070.45 2670.39 723.61"/><polygon class="cls-21" points="2995.95 1049.17 2810.92 1070.45 2810.92 1194.81 2995.95 1158.22 2995.95 1049.17"/><polygon class="cls-22" points="2670.39 723.61 2995.95 1049.17 2810.92 1070.45 2670.39 723.61"/><rect class="cls-23" x="2667.15" y="893.79" width="3.59" height="301.01"/><rect class="cls-16" x="2664.96" y="878.98" width="7.97" height="14.81"/><rect class="cls-24" x="2668.05" y="884.16" width="1.99" height="7.41"/><path class="cls-25" d="M2670.39,723.61s-226.79,509.94-376,495.11"/><rect class="cls-22" x="2294.37" y="1204.85" width="2.87" height="22" rx="1.43" ry="1.43"/><path class="cls-25" d="M3045.85,1218.72c-149.23,14.83-376-495.11-376-495.11"/><rect class="cls-22" x="3042.98" y="1204.85" width="2.87" height="22" rx="1.43" ry="1.43" transform="translate(6088.82 2431.71) rotate(180)"/><polygon class="cls-14" points="107.22 1138.59 105.69 1073.35 295.89 874.04 301.97 1134.03 107.22 1138.59"/><polygon class="cls-14" points="496.73 1129.47 495.2 1064.23 295.89 874.04 301.97 1134.03 496.73 1129.47"/><line class="cls-15" x1="301.97" y1="1134.03" x2="297.93" y2="961.35"/><rect class="cls-16" x="297.1" y="960.78" width="1.81" height="4.26" transform="matrix(1, -0.02, 0.02, 1, -22.46, 7.24)"/><rect class="cls-17" x="297.58" y="962.14" width="0.91" height="4.26" transform="translate(-22.49 7.24) rotate(-1.34)"/><polygon class="cls-26" points="105.69 1073.35 198.84 1083.91 295.89 874.04 105.69 1073.35"/><polygon class="cls-27" points="105.69 1073.35 107.22 1138.59 201.15 1158.29 199.41 1083.9 105.69 1073.35"/><rect class="cls-28" x="200.25" y="1081.72" width="185.46" height="74.41" transform="translate(-26.11 7.17) rotate(-1.34)"/><polygon class="cls-29" points="295.89 874.04 384.81 1079.56 199.41 1083.9 295.89 874.04"/><polygon class="cls-29" points="495.2 1064.23 384.81 1079.56 386.55 1153.94 496.73 1129.47 495.2 1064.23"/><polygon class="cls-30" points="295.89 874.04 495.2 1064.23 384.81 1079.56 295.89 874.04"/><rect class="cls-23" x="298.44" y="975.84" width="2.15" height="180.12" transform="translate(-24.87 7.3) rotate(-1.34)"/><rect class="cls-16" x="294.91" y="967" width="4.77" height="8.86" transform="translate(-22.66 7.23) rotate(-1.34)"/><rect class="cls-24" x="296.79" y="970.1" width="1.19" height="4.43" transform="translate(-22.68 7.23) rotate(-1.34)"/><path class="cls-25" d="M295.89,874s-128.53,308.23-218,301.45"/><rect class="cls-22" x="77.84" y="1167.17" width="1.72" height="13.17" rx="0.86" ry="0.86" transform="translate(-27.46 2.16) rotate(-1.34)"/><path class="cls-25" d="M527.42,1165C438.36,1175.92,295.55,874,295.55,874"/><rect class="cls-22" x="525.67" y="1156.68" width="1.72" height="13.17" rx="0.86" ry="0.86" transform="translate(1080.14 2313.88) rotate(178.66)"/><polygon class="cls-31" points="404.75 1488.09 0 1471.23 0 1637.36 1008.63 1637.36 404.75 1488.09"/><path class="cls-1" d="M3561.69,475.77h-35a57.2,57.2,0,0,0-57.2,57.2v91.21a57,57,0,0,0,17.5,41.16V552.73a57.2,57.2,0,0,1,57.2-57.2h0a57.2,57.2,0,0,1,57.2,57.2V665.33a57,57,0,0,0,17.5-41.16V533A57.2,57.2,0,0,0,3561.69,475.77Z"/><path class="cls-1" d="M3691.69,475.77h-35a57.2,57.2,0,0,0-57.2,57.2v91.21a57,57,0,0,0,17.5,41.16V552.73a57.2,57.2,0,0,1,57.2-57.2h0a57.2,57.2,0,0,1,57.2,57.2V665.33a57,57,0,0,0,17.5-41.16V533A57.2,57.2,0,0,0,3691.69,475.77Z"/></g></g></svg>