<svg xmlns="http://www.w3.org/2000/svg" viewBox="0 0 461.73 438.52"><defs><style>.cls-1{fill:#d5da2f;}.cls-2{fill:#95a9b6;}.cls-3{fill:#e84339;}.cls-4{fill:#f09a9a;}.cls-5{fill:#f7a826;}.cls-6{fill:#fbc02d;}.cls-7{fill:#8fc045;}.cls-8{fill:#aed081;}.cls-9{fill:#9cc766;}.cls-10{fill:#8cc04d;}.cls-11{fill:#7cb340;}.cls-12{fill:#679f37;}.cls-13{fill:#558b31;}.cls-14{fill:#346a2d;}.cls-15{fill:#fdd835;}.cls-16{fill:#c5dda5;}.cls-17{fill:#ffec3d;}.cls-18{fill:#ffee5a;}.cls-19{fill:#fef077;}.cls-20{fill:#fdf39f;}.cls-21{fill:#fff8c5;}.cls-22{fill:#dceac8;}.cls-23{fill:#f07f1e;}.cls-24{fill:#010101;}.cls-25{fill:#f9ccd2;}.cls-26{fill:#fdeaee;}.cls-27{fill:#e53835;}.cls-28{fill:#e94539;}.cls-29{fill:#c72828;}.cls-30{fill:#ea5351;}.cls-31{fill:#eff6fb;}.cls-32{fill:#263239;}.cls-33{fill:#7b94a4;}.cls-34{fill:#b71e1d;}.cls-35{fill:#d3302f;}.cls-36{fill:#e67373;}.cls-37{fill:#aabac5;}.cls-38{fill:#37474f;}.cls-39{fill:#455a64;}.cls-40{fill:#556f7b;}.cls-41{fill:#617d8b;}.cls-42{fill:#788f9b;}.cls-43{fill:#90a4ae;}.cls-44{fill:#afbec5;}.cls-45{fill:#cfd8dc;}.cls-46{fill:#eceff1;}</style></defs><title>Asset 1</title><g id="Layer_2" data-name="Layer 2"><g id="Layer_1-2" data-name="Layer 1"><path class="cls-1" d="M461.73,366.33s-98.48-1.48-133.74-7.82S94.9,372.33,107.73,394.67s188.51,43.33,354,34.83Z"/><path class="cls-2" d="M5.73,269s-59.32-124,456-269V27Z"/><path class="cls-3" d="M461.73,273.25V27C-7.11,140.81,5.73,269,5.73,269l0,107.67Z"/><polygon class="cls-4" points="72.56 175.5 120.06 341.4 59.14 353 53.94 194.07 72.56 175.5"/><path class="cls-5" d="M157.23,376.67c.25.17,11.79,40.22,11.79,40.22L136.4,411l11.08-40.67Z"/><polygon class="cls-6" points="193.73 370.33 170.4 423.5 157.23 379.67 193.73 370.33"/><path class="cls-7" d="M461.73,429.5V366.33s-98.48-1.48-133.74-7.82c-4.91-.88-13-1.25-23.18-1.17v72.15C354.35,431.92,408.57,432.23,461.73,429.5Z"/><polygon class="cls-8" points="343.8 362.13 358.56 425 326.9 425 330.4 359.13 343.8 362.13"/><polygon class="cls-9" points="343.8 362.13 377.82 363.33 358.56 425 343.8 362.13"/><polygon class="cls-10" points="358.56 425 392.4 425.13 377.82 363.33 358.56 425"/><polygon class="cls-11" points="377.82 363.33 411.06 365.67 404.56 428 392.4 425.13 377.82 363.33"/><polygon class="cls-12" points="423.73 367.48 439.4 427.13 404.56 428 411.06 365.67 423.73 367.48"/><polygon class="cls-13" points="461.74 368.83 439.4 427.13 423.73 367.48 461.74 368.83"/><polygon class="cls-14" points="461.74 368.83 461.74 426.18 439.4 427.13 461.74 368.83"/><polygon class="cls-15" points="200.31 354.38 209.31 418.13 174.65 413.82 200.31 354.38"/><polygon class="cls-16" points="334.06 360.61 322.31 423.5 315.47 423.5 303.92 357.24 334.06 360.61"/><polygon class="cls-17" points="200.31 354.38 236.9 352.13 221.19 428.13 211.56 426.38 209.31 418.13 200.31 354.38"/><polygon class="cls-18" points="222.74 420.63 251.06 422.25 236.9 352.13 222.74 420.63"/><polygon class="cls-19" points="236.9 352.13 265.19 354.38 251.06 422.25 236.9 352.13"/><polygon class="cls-20" points="251.06 422.25 286.56 423.5 265.19 354.38 251.06 422.25"/><polygon class="cls-21" points="286.56 423.5 304.94 359.13 265.19 354.38 286.56 423.5"/><polygon class="cls-22" points="304.94 359.13 316.06 427.13 286.56 423.5 304.94 359.13"/><path class="cls-23" d="M114.8,384.9l9.63,19.81c3.89,1.41,8.37,2.8,13.41,4.15l.27-1,9.79-33.13C133.58,377.84,121.93,381.29,114.8,384.9Z"/><path class="cls-24" d="M461.73,426.18S41.59,423.49,136.17,390s325.57-42.05,325.57-42.05V278.5S-51,351.61,18.56,394.39,461.73,435,461.73,435Z"/><path class="cls-25" d="M10.13,249.34,59.14,353l-5.2-158.93C27.56,216.94,15.56,236.11,10.13,249.34Z"/><path class="cls-26" d="M61.18,357.33l-51-108C5,261.81,5.73,269,5.73,269l0,106.92Z"/><polygon class="cls-27" points="301.58 71.54 334.06 287.5 261.44 296.89 273.4 76.67 301.58 71.54"/><polygon class="cls-28" points="261.44 296.89 273.4 76.67 162.61 126.46 231.01 312.63 261.44 296.89"/><polygon class="cls-29" points="437.56 264.25 376.78 48.77 334.06 282.94 437.56 269 437.56 264.25"/><polygon class="cls-30" points="162.61 126.46 231.01 312.63 116.72 329.73 133.9 140.95 162.61 126.46"/><path class="cls-31" d="M461.73,278.5V261S-40.43,339.25,2.94,388.5Z"/><path class="cls-32" d="M461.73,429.5s-428.67-2.75-332.17-37,332.17-43,332.17-43v-71S-61.44,353.25,9.56,397s452.17,41.5,452.17,41.5Z"/><path class="cls-33" d="M461.73,368.83S334.59,365.35,328,358.51l7.57-.69s60.68,8.35,126.17,8.51Z"/><polygon class="cls-34" points="376.78 48.77 461.74 27.05 461.74 261 437.56 264.25 376.78 48.77"/><polygon class="cls-35" points="334.06 282.94 376.78 48.77 301.58 71.54 334.06 282.94"/><polygon class="cls-36" points="116.72 329.73 133.9 140.95 70.06 169 72.56 175.5 116.72 329.73"/><path class="cls-2" d="M48,199.34S133.91,103.84,461.73,27L449.56,9.5,231,85,70.06,169Z"/><path class="cls-37" d="M18.13,234s29-35.91,43.05-47.14C61.18,186.85,11,227.54,18.13,234Z"/><polygon class="cls-38" points="376.78 48.77 390.85 20.25 461.74 0 461.74 27.05 376.78 48.77"/><polygon class="cls-39" points="301.58 71.54 297.75 51.9 390.85 20.25 376.78 48.77 301.58 71.54"/><polygon class="cls-40" points="273.4 81.13 273.4 60.87 315.17 45.66 301.58 71.54 273.4 81.13"/><path class="cls-41" d="M162.61,126.46,157.23,111S248.35,66.82,284,57L273.4,81.13Z"/><polygon class="cls-42" points="133.9 140.95 138.6 120.7 167.71 105.97 162.61 126.46 133.9 140.95"/><path class="cls-43" d="M136.4,121.82s-43.83,21.26-71.13,45.43l8.06,10.91S103.16,156.49,133.9,141Z"/><polygon class="cls-44" points="53.94 194.07 58.36 172.89 74.67 159.57 73.33 178.17 53.94 194.07"/><path class="cls-45" d="M10.13,249.34l5.3-29.45s8-18,42.92-47l-4.42,21.18Z"/><path class="cls-46" d="M5.73,270.72s-9.23-26.41,9.71-50.83l-5.3,29.45S5.73,262.72,5.73,270.72Z"/><path class="cls-46" d="M56.63,347.7l-1.78,10.81s-50.29,15.12-51.91,30C2.94,388.5-18.93,373.27,56.63,347.7Z"/><polygon class="cls-45" points="59.14 346.83 59.14 357.24 54.85 358.51 56.63 347.7 59.14 346.83"/><path class="cls-44" d="M116.72,329.73l-4.16,13L59.14,357.24v-10.4S105.19,331.75,116.72,329.73Z"/><polygon class="cls-43" points="117.83 329.43 117.83 341.15 112.56 342.75 116.72 329.73 117.83 329.43"/><path class="cls-42" d="M227.76,303.8l-9.16,15.66L117.83,341.15V329.43S189,308.27,227.76,303.8Z"/><polygon class="cls-41" points="261.44 296.89 258.06 312 218.61 319.46 227.76 303.8 261.44 296.89"/><polygon class="cls-41" points="334.06 282.94 322.32 300.59 258.06 312 261.44 296.89 334.06 282.94"/><polygon class="cls-39" points="437.56 264.25 426.94 283.68 322.32 300.59 334.06 282.94 437.56 264.25"/><polygon class="cls-38" points="437.56 264.25 461.74 261 461.74 278.5 426.94 283.68 437.56 264.25"/></g></g></svg>