<?xml version="1.0" encoding="utf-8"?>
<!-- Generator: Adobe Illustrator 20.0.0, SVG Export Plug-In . SVG Version: 6.00 Build 0)  -->
<svg version="1.1" id="Layer_1" xmlns="http://www.w3.org/2000/svg" xmlns:xlink="http://www.w3.org/1999/xlink" x="0px" y="0px"
	 viewBox="0 0 841.9 1190.6" style="enable-background:new 0 0 841.9 1190.6;" xml:space="preserve">
<style type="text/css">
	.st0{fill:#D5DA2F;}
	.st1{fill:#95A9B6;}
	.st2{fill:#E84339;}
	.st3{fill:#F09A9A;}
	.st4{fill:#F7A826;}
	.st5{fill:#FBC02D;}
	.st6{fill:#8FC045;}
	.st7{fill:#AED081;}
	.st8{fill:#9CC766;}
	.st9{fill:#8CC04D;}
	.st10{fill:#7CB340;}
	.st11{fill:#679F37;}
	.st12{fill:#558B31;}
	.st13{fill:#346A2D;}
	.st14{fill:#FDD835;}
	.st15{fill:#C5DDA5;}
	.st16{fill:#FFEC3D;}
	.st17{fill:#FFEE5A;}
	.st18{fill:#FEF077;}
	.st19{fill:#FDF39F;}
	.st20{fill:#FFF8C5;}
	.st21{fill:#DCEAC8;}
	.st22{fill:#F07F1E;}
	.st23{fill:#020203;}
	.st24{fill:#F9CCD2;}
	.st25{fill:#FDEAEE;}
	.st26{fill:#E53835;}
	.st27{fill:#E94539;}
	.st28{fill:#C72828;}
	.st29{fill:#EA5351;}
	.st30{fill:#EFF6FB;}
	.st31{fill:#263239;}
	.st32{fill:#7B94A4;}
	.st33{fill:#B71E1D;}
	.st34{fill:#D3302F;}
	.st35{fill:#E67373;}
	.st36{fill:#AABAC5;}
	.st37{fill:#37474F;}
	.st38{fill:#455A64;}
	.st39{fill:#556F7B;}
	.st40{fill:#617D8B;}
	.st41{fill:#788F9B;}
	.st42{fill:#90A4AE;}
	.st43{fill:#AFBEC5;}
	.st44{fill:#CFD8DC;}
	.st45{fill:#ECEFF1;}
</style>
<g>
	<path class="st0" d="M683.8,741.8c0,0-98.5-1.5-133.7-7.8c-35.3-6.3-233.1,13.8-220.3,36.2c12.8,22.3,188.5,43.3,354,34.8V741.8z"
		/>
	<path class="st1" d="M227.8,644.5c0,0-59.3-124,456-269v27L227.8,644.5z"/>
	<path class="st2" d="M683.8,648.7V402.5c-468.8,113.8-456,242-456,242l0,107.7L683.8,648.7z"/>
	<polygon class="st3" points="294.6,551 342.1,716.9 281.2,728.5 276,569.5 	"/>
	<path class="st4" d="M379.3,752.1c0.3,0.2,11.8,40.2,11.8,40.2l-32.6-5.9l11.1-40.7L379.3,752.1z"/>
	<polygon class="st5" points="415.8,745.8 392.5,799 379.3,755.1 	"/>
	<path class="st6" d="M683.8,805v-63.2c0,0-98.5-1.5-133.7-7.8c-4.9-0.9-13-1.3-23.2-1.2V805C576.4,807.4,630.7,807.7,683.8,805z"/>
	<polygon class="st7" points="565.9,737.6 580.6,800.5 549,800.5 552.5,734.6 	"/>
	<polygon class="st8" points="565.9,737.6 599.9,738.8 580.6,800.5 	"/>
	<polygon class="st9" points="580.6,800.5 614.5,800.6 599.9,738.8 	"/>
	<polygon class="st10" points="599.9,738.8 633.1,741.1 626.6,803.5 614.5,800.6 	"/>
	<polygon class="st11" points="645.8,743 661.5,802.6 626.6,803.5 633.1,741.1 	"/>
	<polygon class="st12" points="683.8,744.3 661.5,802.6 645.8,743 	"/>
	<polygon class="st13" points="683.8,744.3 683.8,801.6 661.5,802.6 	"/>
	<polygon class="st14" points="422.4,729.8 431.4,793.6 396.7,789.3 	"/>
	<polygon class="st15" points="556.1,736.1 544.4,799 537.6,799 526,732.7 	"/>
	<polygon class="st16" points="422.4,729.8 459,727.6 443.3,803.6 433.6,801.8 431.4,793.6 	"/>
	<polygon class="st17" points="444.8,796.1 473.1,797.7 459,727.6 	"/>
	<polygon class="st18" points="459,727.6 487.3,729.8 473.1,797.7 	"/>
	<polygon class="st19" points="473.1,797.7 508.6,799 487.3,729.8 	"/>
	<polygon class="st20" points="508.6,799 527,734.6 487.3,729.8 	"/>
	<polygon class="st21" points="527,734.6 538.1,802.6 508.6,799 	"/>
	<path class="st22" d="M336.9,760.4l9.6,19.8c3.9,1.4,8.4,2.8,13.4,4.2l0.3-1l9.8-33.1C355.7,753.3,344,756.8,336.9,760.4z"/>
	<path class="st23" d="M683.8,801.6c0,0-420.1-2.7-325.6-36.2s325.6-42.1,325.6-42.1V654c0,0-512.8,73.1-443.2,115.9
		c69.6,42.8,443.2,40.6,443.2,40.6V801.6z"/>
	<path class="st24" d="M232.2,624.8l49,103.7L276,569.5C249.6,592.4,237.6,611.6,232.2,624.8z"/>
	<path class="st25" d="M283.3,732.8l-51-108c-5.1,12.5-4.4,19.7-4.4,19.7l0,106.9L283.3,732.8z"/>
	<polygon class="st26" points="523.7,447 556.1,663 483.5,672.4 495.5,452.1 	"/>
	<polygon class="st27" points="483.5,672.4 495.5,452.1 384.7,501.9 453.1,688.1 	"/>
	<polygon class="st28" points="659.6,639.7 598.9,424.2 556.1,658.4 659.6,644.5 	"/>
	<polygon class="st29" points="384.7,501.9 453.1,688.1 338.8,705.2 356,516.4 	"/>
	<path class="st30" d="M683.8,654v-17.5c0,0-502.2,78.3-458.8,127.5L683.8,654z"/>
	<path class="st31" d="M683.8,805c0,0-428.7-2.8-332.2-37s332.2-43,332.2-43v-71c0,0-523.2,74.8-452.2,118.5S683.8,814,683.8,814
		V805z"/>
	<path class="st32" d="M683.8,744.3c0,0-127.1-3.5-133.7-10.3l7.6-0.7c0,0,60.7,8.3,126.2,8.5V744.3z"/>
	<polygon class="st33" points="598.9,424.2 683.8,402.5 683.8,636.5 659.6,639.7 	"/>
	<polygon class="st34" points="556.1,658.4 598.9,424.2 523.7,447 	"/>
	<polygon class="st35" points="338.8,705.2 356,516.4 292.1,544.5 294.6,551 	"/>
	<path class="st1" d="M270.1,574.8c0,0,85.9-95.5,413.7-172.3L671.6,385l-218.6,75.5l-160.9,84L270.1,574.8z"/>
	<path class="st36" d="M240.2,609.5c0,0,29-35.9,43.1-47.1C283.3,562.3,233.1,603,240.2,609.5z"/>
	<polygon class="st37" points="598.9,424.2 612.9,395.7 683.8,375.5 683.8,402.5 	"/>
	<polygon class="st38" points="523.7,447 519.8,427.4 612.9,395.7 598.9,424.2 	"/>
	<polygon class="st39" points="495.5,456.6 495.5,436.3 537.3,421.1 523.7,447 	"/>
	<path class="st40" d="M384.7,501.9l-5.4-15.5c0,0,91.1-44.2,126.8-54l-10.6,24.2L384.7,501.9z"/>
	<polygon class="st41" points="356,516.4 360.7,496.2 389.8,481.4 384.7,501.9 	"/>
	<path class="st42" d="M358.5,497.3c0,0-43.8,21.3-71.1,45.4l8.1,10.9c0,0,29.8-21.7,60.6-37.2L358.5,497.3z"/>
	<polygon class="st43" points="276,569.5 280.4,548.4 296.8,535 295.4,553.6 	"/>
	<path class="st44" d="M232.2,624.8l5.3-29.4c0,0,8-18,42.9-47l-4.4,21.2L232.2,624.8z"/>
	<path class="st45" d="M227.8,646.2c0,0-9.2-26.4,9.7-50.8l-5.3,29.4C232.2,624.8,227.8,638.2,227.8,646.2z"/>
	<path class="st45" d="M278.7,723.2l-1.8,10.8c0,0-50.3,15.1-51.9,30C225,764,203.2,748.7,278.7,723.2z"/>
	<polygon class="st44" points="281.2,722.3 281.2,732.7 276.9,734 278.7,723.2 	"/>
	<path class="st43" d="M338.8,705.2l-4.2,13l-53.4,14.5v-10.4C281.2,722.3,327.3,707.2,338.8,705.2z"/>
	<polygon class="st42" points="339.9,704.9 339.9,716.6 334.6,718.2 338.8,705.2 	"/>
	<path class="st41" d="M449.8,679.3l-9.2,15.7l-100.8,21.7v-11.7C339.9,704.9,411,683.7,449.8,679.3z"/>
	<polygon class="st40" points="483.5,672.4 480.1,687.5 440.7,694.9 449.8,679.3 	"/>
	<polygon class="st40" points="556.1,658.4 544.4,676.1 480.1,687.5 483.5,672.4 	"/>
	<polygon class="st38" points="659.6,639.7 649,659.2 544.4,676.1 556.1,658.4 	"/>
	<polygon class="st37" points="659.6,639.7 683.8,636.5 683.8,654 649,659.2 	"/>
</g>
</svg>
