<?xml version="1.0" encoding="utf-8"?>
<!-- Generator: Adobe Illustrator 21.0.0, SVG Export Plug-In . SVG Version: 6.00 Build 0)  -->
<svg version="1.1" id="Layer_1" xmlns="http://www.w3.org/2000/svg" xmlns:xlink="http://www.w3.org/1999/xlink" x="0px" y="0px"
	 width="195px" height="117.8px" viewBox="0 0 195 117.8" style="enable-background:new 0 0 195 117.8;" xml:space="preserve">
<style type="text/css">
	.st0{fill:#fff;}
</style>
<path class="st0" d="M175.3,32.8C172.8,14.3,157,0,137.8,0c-13.1,0-24.6,6.6-31.4,16.7C99.8,10.9,91,7.3,81.5,7.3
	C65,7.3,50.9,17.9,45.8,32.7c-2.6-0.5-5.2-0.8-7.9-0.8C16.9,31.9,0,48.8,0,69.7s16.9,37.8,37.8,37.8c4.3,0,8.4-0.7,12.3-2.1
	c5.9,3.8,12.9,6,20.4,6c9,0,17.3-3.2,23.8-8.4c6.9,9,17.8,14.8,30,14.8c11.9,0,22.5-5.5,29.5-14.1c1.1,0.1,2.2,0.2,3.4,0.2
	C178,103.8,195,86.9,195,66C195,51.7,187,39.3,175.3,32.8z"/>
</svg>
