<?xml version="1.0" encoding="utf-8"?>
<!-- Generator: Adobe Illustrator 21.0.0, SVG Export Plug-In . SVG Version: 6.00 Build 0)  -->
<svg version="1.1" id="Layer_1" xmlns="http://www.w3.org/2000/svg" xmlns:xlink="http://www.w3.org/1999/xlink" x="0px" y="0px"
	 width="195px" height="117.8px" viewBox="0 0 195 117.8" style="enable-background:new 0 0 195 117.8;" xml:space="preserve">
<style type="text/css">
	.st0{fill:#fff;}
</style>
<path class="st0" d="M159,32.8C156.5,14.3,140.7,0,121.5,0c-13.1,0-24.6,6.6-31.4,16.7c-6.7-5.8-15.4-9.4-24.9-9.4
	c-20.9,0-37.8,16.9-37.8,37.8c0,0.6,0,1.2,0,1.7c-6.8,6.8-11,16.3-11,26.7c0,20.9,16.9,37.8,37.8,37.8c9,0,17.3-3.2,23.8-8.4
	c6.9,9,17.8,14.8,30,14.8c11.9,0,22.5-5.5,29.5-14.1c1.1,0.1,2.2,0.2,3.4,0.2c20.9,0,37.8-16.9,37.8-37.8
	C178.6,51.7,170.7,39.3,159,32.8z"/>
</svg>
