<svg xmlns="http://www.w3.org/2000/svg" viewBox="0 0 392.27 186.74"><defs><style>.cls-1{fill:#8dc04e;}.cls-2{fill:#689238;}.cls-3{fill:#775a46;}.cls-4{fill:#5a4435;}</style></defs><title>treetop</title><g id="Layer_2" data-name="Layer 2"><g id="Layer_1-2" data-name="Layer 1"><polygon class="cls-1" points="52.61 0 0 186.74 99.69 186.74 52.61 0"/><polygon class="cls-2" points="52.61 0 52.61 186.74 99.69 186.74 52.61 0"/><polygon class="cls-3" points="56.09 178.97 60.92 171.84 54.49 171.84 54.49 139.85 52.61 71.13 48.06 139.32 44.12 186.74 57.08 186.74 56.09 178.97"/><polygon class="cls-4" points="52.61 71.13 51.27 174.15 60.92 171.84 54.49 171.84 52.61 71.13"/><polygon class="cls-3" points="49.4 133.96 44.27 133.96 47.41 147.06 49.4 133.96"/><polyline class="cls-3" points="51.23 91.76 52.61 37.11 52.58 88.95 51.16 92.86"/><polygon class="cls-4" points="52.88 85.7 53.88 85.53 53.03 93.84 52.88 85.7"/><polygon class="cls-1" points="107.92 27.9 63.17 186.74 147.96 186.74 107.92 27.9"/><polygon class="cls-2" points="107.92 27.9 107.92 186.74 147.96 186.74 107.92 27.9"/><polygon class="cls-3" points="109.79 167.75 107.92 99.03 103.36 167.22 101.74 186.74 109.79 186.74 109.79 167.75"/><polygon class="cls-4" points="107.92 99.03 106.78 186.74 109.55 186.74 107.92 99.03"/><polygon class="cls-3" points="104.7 161.86 99.58 161.86 102.72 174.96 104.7 161.86"/><polyline class="cls-3" points="106.54 119.66 107.92 65.01 107.88 116.85 106.47 120.75"/><polygon class="cls-4" points="108.19 113.6 109.19 113.43 108.34 121.74 108.19 113.6"/><polygon class="cls-1" points="262.49 65.74 228.4 186.74 292.99 186.74 262.49 65.74"/><polygon class="cls-2" points="262.49 65.74 262.49 186.74 292.99 186.74 262.49 65.74"/><polygon class="cls-3" points="262.49 136.87 259.16 186.74 263.85 186.74 262.49 136.87"/><polygon class="cls-4" points="262.49 136.87 261.84 186.74 263.42 186.74 262.49 136.87"/><polyline class="cls-3" points="261.11 157.5 262.49 102.85 262.45 154.69 261.04 158.59"/><polygon class="cls-4" points="262.76 151.44 263.76 151.27 262.91 159.58 262.76 151.44"/><polygon class="cls-1" points="195.77 0 143.16 186.74 242.84 186.74 195.77 0"/><polygon class="cls-2" points="195.77 0 195.77 186.74 242.84 186.74 195.77 0"/><polygon class="cls-3" points="199.25 178.97 204.08 171.84 197.65 171.84 197.65 139.85 195.77 71.13 191.22 139.32 187.28 186.74 200.24 186.74 199.25 178.97"/><polygon class="cls-4" points="195.77 71.13 194.43 174.15 204.08 171.84 197.65 171.84 195.77 71.13"/><polygon class="cls-3" points="192.56 133.96 187.43 133.96 190.57 147.06 192.56 133.96"/><polyline class="cls-3" points="194.39 91.76 195.77 37.11 195.73 88.95 194.32 92.86"/><polygon class="cls-4" points="196.04 85.7 197.04 85.53 196.19 93.84 196.04 85.7"/><polygon class="cls-1" points="348.37 12.59 299.31 186.74 392.27 186.74 348.37 12.59"/><polygon class="cls-2" points="348.37 12.59 348.37 186.74 392.27 186.74 348.37 12.59"/><polygon class="cls-3" points="356.68 184.43 350.25 184.43 350.25 152.44 348.37 83.72 343.82 151.91 340.93 186.74 355.12 186.74 356.68 184.43"/><polygon class="cls-4" points="348.37 83.72 347.03 186.74 356.68 184.43 350.25 184.43 348.37 83.72"/><polygon class="cls-3" points="345.16 146.55 340.03 146.55 343.17 159.65 345.16 146.55"/><polyline class="cls-3" points="346.99 104.35 348.37 49.7 348.33 101.54 346.92 105.45"/><polygon class="cls-4" points="348.64 98.29 349.64 98.13 348.79 106.43 348.64 98.29"/></g></g></svg>